<?xml version="1.0" standalone="no"?>
<!DOCTYPE svg PUBLIC "-//W3C//DTD SVG 20010904//EN"
 "http://www.w3.org/TR/2001/REC-SVG-20010904/DTD/svg10.dtd">
<svg version="1.0" xmlns="http://www.w3.org/2000/svg"
 width="500.000000pt" height="500.000000pt" viewBox="0 0 500.000000 500.000000"
 preserveAspectRatio="xMidYMid meet">

<g transform="translate(0.000000,500.000000) scale(0.100000,-0.100000)"
fill="#000000" stroke="none">
<path d="M2061 3733 c-7 -26 -14 -55 -17 -64 -3 -11 7 -20 37 -29 23 -8 73
-36 112 -63 l70 -50 -6 62 c-3 33 -14 75 -24 93 -23 39 -86 86 -129 94 -30 6
-31 5 -43 -43z"/>
<path d="M3867 3523 c-6 -9 -69 -290 -103 -457 -31 -151 -31 -203 -1 -247 31
-46 70 -63 143 -63 46 0 76 7 116 27 52 26 130 97 155 142 21 37 22 10 3 -70
-11 -44 -19 -81 -20 -82 0 -2 55 -3 123 -3 l123 0 78 358 c43 196 80 367 83
380 5 22 5 22 -124 22 l-130 0 -38 -147 c-62 -246 -133 -406 -194 -438 -34
-17 -61 -3 -61 32 0 14 25 138 55 275 30 137 55 256 55 264 0 11 -23 14 -129
14 -72 0 -132 -3 -134 -7z"/>
<path d="M1996 3503 c-10 -33 -36 -154 -36 -166 0 -7 37 -39 81 -72 98 -72
210 -189 278 -290 l50 -75 7 36 c10 56 -4 198 -27 266 -40 121 -131 226 -240
280 -80 39 -106 44 -113 21z"/>
<path d="M601 3466 c-19 -78 -22 -76 84 -76 77 0 95 -3 95 -15 0 -8 -29 -148
-65 -312 -36 -164 -65 -302 -65 -306 0 -4 50 -6 112 -5 l112 3 70 318 69 317
102 0 102 0 7 38 c3 20 9 47 12 60 l6 22 -315 0 -315 0 -11 -44z"/>
<path d="M1340 3506 c0 -2 -36 -169 -80 -371 -44 -202 -80 -371 -80 -376 0 -5
43 -9 95 -9 l95 0 6 28 c39 180 97 339 141 385 29 29 60 35 69 13 4 -10 -62
-337 -82 -408 -5 -16 4 -18 95 -18 86 0 100 2 105 18 25 86 86 401 86 445 0
45 -4 59 -25 80 -65 64 -202 30 -275 -69 -25 -34 -43 -45 -35 -21 5 14 65 293
65 301 0 3 -40 6 -90 6 -49 0 -90 -2 -90 -4z"/>
<path d="M3231 3473 c-5 -21 -35 -155 -66 -298 -63 -292 -84 -382 -91 -408 -5
-16 2 -18 91 -15 l97 3 29 87 c15 48 36 102 46 120 l18 33 6 -80 c4 -44 14
-98 22 -120 l14 -40 111 -3 111 -3 -25 44 c-43 78 -65 158 -71 257 -5 92 -5
96 21 127 28 34 85 58 116 50 15 -4 20 4 29 40 18 68 5 75 -87 48 -64 -19
-152 -98 -212 -190 -24 -36 -44 -64 -46 -62 -3 3 80 388 92 430 5 15 -4 17
-95 17 l-100 0 -10 -37z"/>
<path d="M2892 3320 c-44 -10 -110 -58 -136 -97 -23 -35 -41 -44 -32 -15 3 9
8 31 11 47 4 17 9 38 12 48 4 15 -5 17 -86 17 -86 0 -91 -1 -96 -22 -22 -91
-115 -526 -115 -535 0 -10 25 -13 93 -13 l94 0 31 119 c34 134 68 225 104 277
25 38 65 55 78 33 10 -15 9 -21 -41 -248 -22 -96 -39 -175 -39 -177 0 -2 45
-4 100 -4 55 0 100 2 100 3 0 2 20 95 45 206 62 278 59 324 -21 357 -36 15
-52 16 -102 4z"/>
<path d="M1915 3154 c-15 -63 -25 -117 -23 -119 2 -2 46 -21 98 -43 108 -44
207 -99 295 -165 49 -37 62 -43 68 -31 17 31 -132 246 -239 344 -51 48 -157
130 -166 130 -4 0 -18 -52 -33 -116z"/>
<path d="M1851 2879 c-12 -56 -25 -108 -28 -115 -4 -12 37 -14 233 -14 l239 1
-36 32 c-71 62 -325 196 -374 197 -6 0 -21 -46 -34 -101z"/>
<path d="M1109 2374 c-8 -9 -19 -35 -24 -58 l-11 -41 -165 -5 c-194 -6 -209
-12 -228 -87 -19 -74 -101 -422 -101 -428 0 -3 83 -5 185 -5 l185 0 -6 -27
c-3 -16 -12 -53 -20 -84 -8 -31 -14 -60 -14 -63 0 -3 18 -6 40 -6 43 0 62 19
74 75 4 17 12 47 17 68 l10 37 150 0 c156 0 185 6 221 46 12 15 118 432 118
468 0 3 -83 6 -185 6 -102 0 -185 1 -185 3 0 1 7 27 15 57 8 30 15 56 15 58 0
1 -17 2 -39 2 -23 0 -44 -6 -52 -16z m-59 -196 c0 -7 -6 -35 -13 -63 l-13 -50
-138 -3 c-128 -2 -137 -1 -133 15 3 10 9 34 12 53 4 19 12 41 17 48 15 17 268
17 268 0z m370 -2 c0 -8 -5 -37 -12 -65 l-11 -51 -139 0 c-77 0 -137 3 -135 8
3 4 10 33 17 65 l11 57 135 0 c109 0 134 -3 134 -14z m-420 -208 c0 -7 -4 -29
-9 -48 -5 -19 -12 -47 -15 -62 l-6 -28 -135 0 c-147 0 -142 -2 -126 60 5 19
12 47 15 63 l6 27 135 0 c101 0 135 -3 135 -12z m363 -50 c-8 -35 -19 -68 -25
-75 -7 -9 -48 -13 -140 -13 -130 0 -130 0 -124 23 3 12 11 46 17 75 l12 52
137 0 137 0 -14 -62z"/>
<path d="M1967 2370 c-14 -12 -36 -38 -48 -59 l-22 -39 -94 -4 c-80 -2 -97 -6
-109 -22 -8 -11 -14 -28 -14 -38 0 -16 10 -18 81 -18 61 0 80 -3 76 -12 -2 -7
-84 -146 -181 -308 l-175 -295 40 -3 c25 -2 50 3 64 12 14 9 79 107 145 218
66 111 122 204 124 206 4 4 146 -187 146 -197 0 -3 -66 -58 -146 -121 l-145
-115 37 -3 c71 -6 103 7 209 88 l104 79 52 -71 c59 -79 91 -98 169 -98 l50 0
-85 115 c-47 63 -85 119 -85 123 0 5 56 53 125 106 133 102 159 131 153 168
l-3 23 -255 5 c-274 5 -268 4 -234 56 l16 24 243 0 c217 0 245 2 263 18 11 9
23 27 27 40 l6 22 -246 0 -247 0 23 38 c13 20 29 47 37 60 14 22 14 22 -31 22
-29 0 -53 -7 -70 -20z m322 -334 c-22 -22 -183 -146 -189 -146 -9 0 -110 133
-110 144 0 3 68 6 152 6 83 0 149 -2 147 -4z"/>
<path d="M2840 2377 c-16 -8 -28 -26 -34 -49 l-9 -36 -64 -4 c-66 -4 -86 -15
-98 -55 -6 -22 -4 -23 68 -23 l75 0 -10 -40 -10 -40 -62 0 c-70 0 -81 -5 -95
-43 l-11 -27 85 0 c47 0 85 -3 85 -7 0 -5 -47 -51 -105 -103 -58 -52 -105 -96
-105 -98 0 -3 25 -2 56 1 36 4 70 15 96 32 30 20 49 25 81 23 l42 -3 -46 -32
c-32 -22 -48 -41 -52 -62 l-6 -29 -85 -3 c-89 -4 -107 -13 -121 -56 -6 -23 -5
-23 89 -23 53 0 96 -3 96 -7 0 -5 -7 -33 -15 -63 -8 -30 -15 -56 -15 -57 0 -2
17 -3 38 -3 37 0 72 22 72 46 0 5 5 26 11 47 10 37 10 37 63 37 58 0 89 18
101 58 6 21 4 22 -64 22 -55 0 -71 3 -71 14 0 8 33 41 73 74 134 110 135 122
14 122 l-81 0 34 35 c31 32 39 35 91 35 50 0 60 3 78 26 28 36 26 44 -9 44
-16 0 -30 2 -30 3 0 2 25 29 55 59 30 30 55 60 55 67 0 19 -47 31 -127 31
l-75 0 7 50 c7 48 6 50 -17 50 -12 0 -34 -6 -48 -13z m63 -199 c-36 -36 -44
-35 -36 5 4 22 10 27 36 27 l32 0 -32 -32z"/>
<path d="M3252 2378 c-5 -7 -51 -82 -100 -165 l-91 -153 57 0 c57 0 57 0 84
45 l28 45 75 0 c41 0 75 -2 75 -5 0 -5 -145 -202 -161 -219 -5 -6 -17 11 -30
42 l-22 52 -53 0 c-30 0 -54 -4 -54 -8 0 -4 16 -47 35 -95 19 -48 35 -93 35
-100 0 -11 -106 -164 -164 -236 -9 -12 -3 -13 37 -9 52 6 94 38 140 105 12 18
25 33 28 33 3 0 16 -25 28 -56 28 -66 55 -86 109 -82 l40 3 -50 122 -50 123
126 171 c79 108 126 180 126 195 0 34 -33 44 -137 44 l-85 0 27 48 c15 26 36
62 47 80 l20 32 -55 0 c-32 0 -59 -5 -65 -12z"/>
<path d="M4020 2370 c-11 -11 -20 -29 -20 -40 0 -18 7 -20 58 -20 65 0 88 12
98 53 l6 27 -61 0 c-48 0 -65 -4 -81 -20z"/>
<path d="M3685 2273 c-25 -6 -45 -31 -45 -55 0 -13 8 -18 30 -18 17 0 30 -2
30 -5 0 -3 -12 -24 -27 -46 -49 -75 -55 -74 342 -77 261 -2 351 1 362 10 11 9
13 25 8 65 -6 49 -5 53 15 53 24 0 70 42 70 65 0 13 -44 15 -382 14 -211 -1
-392 -3 -403 -6z m583 -100 l3 -23 -240 0 c-133 0 -241 2 -241 5 0 3 6 14 13
25 11 20 21 20 237 18 225 -3 225 -3 228 -25z"/>
<path d="M3647 2005 c-8 -8 -32 -85 -52 -172 -20 -87 -43 -182 -50 -210 l-13
-53 49 0 48 0 11 43 c6 23 13 48 15 55 3 9 65 12 265 12 290 0 269 6 251 -72
l-9 -38 38 0 c22 0 43 7 53 18 13 15 107 381 107 418 0 21 -692 20 -713 -1z
m599 -81 c-3 -9 -6 -20 -6 -25 0 -5 -111 -9 -265 -9 -250 0 -265 1 -265 18 0
10 3 22 7 25 3 4 125 7 271 7 237 0 264 -2 258 -16z m-35 -141 l-7 -28 -262
-3 -262 -2 0 23 c0 13 3 27 7 30 3 4 124 7 269 7 l262 0 -7 -27z"/>
</g>
</svg>
